<svg id="svg" version="1.1" xmlns="http://www.w3.org/2000/svg" xmlns:xlink="http://www.w3.org/1999/xlink" width="400" height="533.3333333333334" viewBox="0, 0, 400,533.3333333333334"><g id="svgg"><path id="path0" d="M0.000 266.600 L 0.000 533.200 200.000 533.200 L 400.000 533.200 400.000 266.600 L 400.000 0.000 200.000 0.000 L 0.000 0.000 0.000 266.600 M195.831 20.100 C 196.159 20.375,196.679 20.825,196.985 21.100 C 197.292 21.375,197.670 21.600,197.826 21.600 C 197.981 21.600,198.525 22.050,199.035 22.600 C 199.545 23.150,200.159 23.600,200.400 23.600 C 200.641 23.600,201.255 24.050,201.765 24.600 C 202.275 25.150,202.819 25.600,202.974 25.600 C 203.130 25.600,203.508 25.825,203.815 26.100 C 205.049 27.207,205.579 27.600,205.837 27.600 C 205.986 27.600,206.525 28.050,207.035 28.600 C 207.545 29.150,208.159 29.600,208.400 29.600 C 208.641 29.600,209.255 30.050,209.765 30.600 C 210.275 31.150,210.819 31.600,210.974 31.600 C 211.130 31.600,211.508 31.825,211.815 32.100 C 213.049 33.207,213.579 33.600,213.837 33.600 C 213.986 33.600,214.525 34.050,215.035 34.600 C 215.545 35.150,216.159 35.600,216.400 35.600 C 216.641 35.600,217.255 36.050,217.765 36.600 C 218.275 37.150,218.814 37.600,218.963 37.600 C 219.221 37.600,219.751 37.993,220.985 39.100 C 221.292 39.375,221.670 39.600,221.826 39.600 C 221.981 39.600,222.525 40.050,223.035 40.600 C 223.545 41.150,224.159 41.600,224.400 41.600 C 224.641 41.600,225.255 42.050,225.765 42.600 C 226.275 43.150,226.814 43.600,226.963 43.600 C 227.221 43.600,227.751 43.993,228.985 45.100 C 229.292 45.375,229.670 45.600,229.826 45.600 C 229.981 45.600,230.525 46.050,231.035 46.600 C 231.545 47.150,232.159 47.600,232.400 47.600 C 232.641 47.600,233.255 48.050,233.765 48.600 C 234.275 49.150,234.819 49.600,234.974 49.600 C 235.130 49.600,235.508 49.825,235.815 50.100 C 237.049 51.207,237.579 51.600,237.837 51.600 C 237.986 51.600,238.525 52.050,239.035 52.600 C 239.545 53.150,240.159 53.600,240.400 53.600 C 240.641 53.600,241.255 54.050,241.765 54.600 C 242.275 55.150,242.896 55.600,243.146 55.600 C 243.396 55.600,243.600 55.768,243.600 55.973 C 243.600 56.178,243.990 56.470,244.466 56.621 C 244.942 56.772,245.761 57.324,246.284 57.848 C 246.808 58.372,247.455 58.800,247.723 58.800 C 247.991 58.800,248.548 59.250,248.961 59.800 C 249.374 60.350,250.035 60.800,250.429 60.800 C 250.823 60.800,251.257 61.151,251.394 61.580 C 251.530 62.008,252.021 62.480,252.487 62.627 C 252.952 62.775,253.761 63.324,254.284 63.848 C 254.808 64.372,255.455 64.800,255.723 64.800 C 255.991 64.800,256.548 65.250,256.961 65.800 C 257.374 66.350,258.035 66.800,258.429 66.800 C 258.823 66.800,259.257 67.151,259.394 67.580 C 259.530 68.008,260.021 68.480,260.487 68.627 C 260.952 68.775,261.761 69.324,262.284 69.848 C 262.808 70.372,263.455 70.800,263.723 70.800 C 263.991 70.800,264.548 71.250,264.961 71.800 C 265.374 72.350,266.035 72.800,266.429 72.800 C 266.823 72.800,267.257 73.151,267.394 73.580 C 267.530 74.008,268.021 74.480,268.487 74.627 C 268.952 74.775,269.761 75.324,270.284 75.848 C 270.808 76.372,271.455 76.800,271.723 76.800 C 271.991 76.800,272.548 77.250,272.961 77.800 C 273.374 78.350,274.035 78.800,274.429 78.800 C 274.823 78.800,275.257 79.151,275.394 79.580 C 275.530 80.008,276.021 80.480,276.487 80.627 C 276.952 80.775,277.761 81.324,278.284 81.848 C 278.808 82.372,279.455 82.800,279.723 82.800 C 279.991 82.800,280.548 83.250,280.961 83.800 C 281.374 84.350,282.035 84.800,282.429 84.800 C 282.823 84.800,283.257 85.151,283.394 85.580 C 283.530 86.008,284.021 86.480,284.487 86.627 C 284.952 86.775,285.761 87.324,286.284 87.848 C 286.808 88.372,287.455 88.800,287.723 88.800 C 287.991 88.800,288.548 89.250,288.961 89.800 C 289.374 90.350,290.035 90.800,290.429 90.800 C 290.823 90.800,291.257 91.151,291.394 91.580 C 291.530 92.008,292.037 92.484,292.520 92.637 C 293.004 92.789,293.691 93.249,294.047 93.657 C 294.403 94.066,294.890 94.400,295.129 94.400 C 295.368 94.400,295.992 94.828,296.516 95.352 C 297.039 95.876,297.848 96.425,298.313 96.573 C 298.779 96.720,299.270 97.192,299.406 97.620 C 299.543 98.049,299.977 98.400,300.371 98.400 C 300.765 98.400,301.426 98.850,301.839 99.400 C 302.252 99.950,302.809 100.400,303.077 100.400 C 303.345 100.400,303.992 100.828,304.516 101.352 C 305.039 101.876,305.848 102.425,306.313 102.573 C 306.779 102.720,307.270 103.192,307.406 103.620 C 307.543 104.049,307.977 104.400,308.371 104.400 C 308.765 104.400,309.426 104.850,309.839 105.400 C 310.252 105.950,310.809 106.400,311.077 106.400 C 311.345 106.400,311.992 106.828,312.516 107.352 C 313.039 107.876,313.848 108.425,314.313 108.573 C 314.779 108.720,315.270 109.192,315.406 109.620 C 315.543 110.049,315.977 110.400,316.371 110.400 C 316.765 110.400,317.426 110.850,317.839 111.400 C 318.252 111.950,318.809 112.400,319.077 112.400 C 319.345 112.400,319.992 112.828,320.516 113.352 C 321.039 113.876,321.848 114.425,322.313 114.573 C 322.779 114.720,323.270 115.192,323.406 115.620 C 323.543 116.049,323.977 116.400,324.371 116.400 C 324.765 116.400,325.426 116.850,325.839 117.400 C 326.252 117.950,326.809 118.400,327.077 118.400 C 327.345 118.400,327.992 118.828,328.516 119.352 C 329.039 119.876,329.848 120.425,330.313 120.573 C 330.779 120.720,331.270 121.192,331.406 121.620 C 331.543 122.049,331.977 122.400,332.371 122.400 C 332.765 122.400,333.426 122.850,333.839 123.400 C 334.252 123.950,334.809 124.400,335.077 124.400 C 335.345 124.400,335.992 124.828,336.516 125.352 C 337.039 125.876,337.848 126.425,338.313 126.573 C 338.779 126.720,339.270 127.192,339.406 127.620 C 339.543 128.049,339.977 128.400,340.371 128.400 C 340.765 128.400,341.418 128.839,341.821 129.376 C 342.224 129.913,342.969 130.456,343.477 130.584 C 343.985 130.711,344.400 130.992,344.400 131.208 C 344.400 131.423,344.588 131.600,344.817 131.600 C 345.209 131.600,345.662 131.913,346.985 133.100 C 347.292 133.375,347.670 133.600,347.826 133.600 C 347.981 133.600,348.525 134.050,349.035 134.600 C 349.545 135.150,350.159 135.600,350.400 135.600 C 350.641 135.600,351.255 136.050,351.765 136.600 C 352.275 137.150,352.814 137.600,352.963 137.600 C 353.221 137.600,353.751 137.993,354.985 139.100 C 355.292 139.375,355.670 139.600,355.826 139.600 C 355.981 139.600,356.525 140.050,357.035 140.600 C 357.545 141.150,358.159 141.600,358.400 141.600 C 358.641 141.600,359.255 142.050,359.765 142.600 C 360.275 143.150,360.814 143.600,360.963 143.600 C 361.221 143.600,361.751 143.993,362.985 145.100 C 363.292 145.375,363.670 145.600,363.826 145.600 C 363.981 145.600,364.525 146.050,365.035 146.600 C 365.545 147.150,366.159 147.600,366.400 147.600 C 366.641 147.600,367.255 148.050,367.765 148.600 C 368.275 149.150,368.896 149.600,369.146 149.600 C 369.409 149.600,369.600 150.273,369.600 151.200 C 369.600 152.080,369.780 152.800,370.000 152.800 C 370.266 152.800,370.400 214.000,370.400 335.600 L 370.400 518.400 357.400 518.400 L 344.400 518.400 344.400 346.000 C 344.400 231.333,344.266 173.600,344.000 173.600 C 343.780 173.600,343.600 173.330,343.600 173.000 C 343.600 172.670,343.423 172.400,343.208 172.400 C 342.992 172.400,342.702 171.950,342.564 171.400 L 342.313 170.400 330.775 170.400 L 319.236 170.400 318.218 171.418 C 317.658 171.978,317.200 172.878,317.200 173.418 C 317.200 173.958,317.020 174.400,316.800 174.400 C 316.534 174.400,316.400 209.200,316.400 278.000 C 316.400 369.822,316.332 381.600,315.800 381.600 C 315.470 381.600,315.200 381.780,315.200 382.000 C 315.200 382.220,314.834 382.400,314.387 382.400 C 313.941 382.400,313.471 382.670,313.345 383.000 C 313.218 383.330,312.774 383.600,312.357 383.600 C 311.941 383.600,311.600 383.760,311.600 383.957 C 311.600 384.153,311.116 384.435,310.524 384.583 C 309.932 384.732,309.146 385.201,308.777 385.626 C 308.409 386.051,307.549 386.510,306.866 386.647 C 306.183 386.783,305.523 387.212,305.400 387.600 C 305.277 387.988,304.617 388.417,303.934 388.553 C 303.251 388.690,302.402 389.135,302.046 389.544 C 301.691 389.952,300.950 390.427,300.400 390.600 C 299.850 390.773,299.109 391.248,298.754 391.656 C 298.398 392.065,297.543 392.511,296.854 392.649 C 296.164 392.787,295.600 393.057,295.600 393.250 C 295.600 393.442,295.330 393.600,295.000 393.600 C 294.670 393.600,294.400 393.777,294.400 393.992 C 294.400 394.208,293.950 394.498,293.400 394.636 C 292.850 394.774,292.400 395.047,292.400 395.243 C 292.400 395.440,292.130 395.600,291.800 395.600 C 291.470 395.600,291.200 395.777,291.200 395.992 C 291.200 396.208,290.750 396.498,290.200 396.636 C 289.650 396.774,289.200 397.047,289.200 397.243 C 289.200 397.440,288.859 397.600,288.443 397.600 C 288.026 397.600,287.582 397.870,287.455 398.200 C 287.329 398.530,286.859 398.800,286.413 398.800 C 285.966 398.800,285.600 398.980,285.600 399.200 C 285.600 399.420,285.330 399.600,285.000 399.600 C 284.670 399.600,284.400 399.760,284.400 399.957 C 284.400 400.153,283.950 400.426,283.400 400.564 C 282.850 400.702,282.400 400.992,282.400 401.208 C 282.400 401.423,282.130 401.600,281.800 401.600 C 281.470 401.600,281.200 401.780,281.200 402.000 C 281.200 402.220,280.834 402.400,280.387 402.400 C 279.941 402.400,279.471 402.670,279.345 403.000 C 279.218 403.330,278.774 403.600,278.357 403.600 C 277.941 403.600,277.600 403.760,277.600 403.957 C 277.600 404.153,277.150 404.426,276.600 404.564 C 276.050 404.702,275.600 404.992,275.600 405.208 C 275.600 405.423,275.330 405.600,275.000 405.600 C 274.670 405.600,274.400 405.760,274.400 405.957 C 274.400 406.153,273.950 406.426,273.400 406.564 C 272.850 406.702,272.400 406.992,272.400 407.208 C 272.400 407.423,272.130 407.600,271.800 407.600 C 271.470 407.600,271.200 407.757,271.200 407.950 C 271.200 408.143,270.636 408.413,269.946 408.551 C 269.257 408.689,268.402 409.135,268.046 409.544 C 267.691 409.952,266.950 410.427,266.400 410.600 C 265.850 410.773,265.109 411.248,264.754 411.656 C 264.398 412.065,263.549 412.510,262.866 412.647 C 262.183 412.783,261.523 413.212,261.400 413.600 C 261.277 413.988,260.617 414.417,259.934 414.553 C 259.251 414.690,258.391 415.149,258.023 415.574 C 257.654 415.999,256.868 416.468,256.276 416.617 C 255.684 416.765,255.200 417.047,255.200 417.243 C 255.200 417.440,254.859 417.600,254.443 417.600 C 254.026 417.600,253.582 417.870,253.455 418.200 C 253.329 418.530,252.859 418.800,252.413 418.800 C 251.966 418.800,251.600 418.980,251.600 419.200 C 251.600 419.420,251.330 419.600,251.000 419.600 C 250.670 419.600,250.400 419.777,250.400 419.992 C 250.400 420.208,249.950 420.498,249.400 420.636 C 248.850 420.774,248.400 421.047,248.400 421.243 C 248.400 421.440,248.130 421.600,247.800 421.600 C 247.470 421.600,247.200 421.777,247.200 421.992 C 247.200 422.208,246.750 422.498,246.200 422.636 C 245.650 422.774,245.200 423.047,245.200 423.243 C 245.200 423.440,244.840 423.600,244.400 423.600 C 243.960 423.600,243.600 423.760,243.600 423.957 C 243.600 424.153,243.150 424.426,242.600 424.564 C 242.050 424.702,241.600 424.992,241.600 425.208 C 241.600 425.423,241.330 425.600,241.000 425.600 C 240.670 425.600,240.400 425.760,240.400 425.957 C 240.400 426.153,239.950 426.426,239.400 426.564 C 238.850 426.702,238.400 426.992,238.400 427.208 C 238.400 427.423,238.130 427.600,237.800 427.600 C 237.470 427.600,237.200 427.767,237.200 427.972 C 237.200 428.177,236.795 428.402,236.300 428.472 C 235.641 428.566,235.400 428.868,235.400 429.600 C 235.400 430.332,235.641 430.634,236.300 430.728 C 236.795 430.798,237.200 431.023,237.200 431.228 C 237.200 431.433,237.470 431.600,237.800 431.600 C 238.130 431.600,238.400 431.777,238.400 431.992 C 238.400 432.208,238.850 432.498,239.400 432.636 C 239.950 432.774,240.400 433.047,240.400 433.243 C 240.400 433.440,240.670 433.600,241.000 433.600 C 241.330 433.600,241.600 433.777,241.600 433.992 C 241.600 434.208,242.050 434.498,242.600 434.636 C 243.150 434.774,243.600 435.047,243.600 435.243 C 243.600 435.440,243.941 435.600,244.357 435.600 C 244.774 435.600,245.218 435.870,245.345 436.200 C 245.471 436.530,245.941 436.800,246.387 436.800 C 246.834 436.800,247.200 436.980,247.200 437.200 C 247.200 437.420,247.470 437.600,247.800 437.600 C 248.130 437.600,248.400 437.760,248.400 437.957 C 248.400 438.153,248.850 438.426,249.400 438.564 C 249.950 438.702,250.400 438.992,250.400 439.208 C 250.400 439.423,250.670 439.600,251.000 439.600 C 251.330 439.600,251.600 439.780,251.600 440.000 C 251.600 440.220,251.966 440.400,252.413 440.400 C 252.859 440.400,253.329 440.670,253.455 441.000 C 253.582 441.330,254.026 441.600,254.443 441.600 C 254.859 441.600,255.200 441.760,255.200 441.957 C 255.200 442.153,255.650 442.426,256.200 442.564 C 256.750 442.702,257.200 442.992,257.200 443.208 C 257.200 443.423,257.470 443.600,257.800 443.600 C 258.130 443.600,258.400 443.760,258.400 443.957 C 258.400 444.153,258.850 444.426,259.400 444.564 C 259.950 444.702,260.400 444.992,260.400 445.208 C 260.400 445.423,260.670 445.600,261.000 445.600 C 261.330 445.600,261.600 445.757,261.600 445.950 C 261.600 446.143,262.164 446.413,262.854 446.551 C 263.543 446.689,264.398 447.135,264.754 447.544 C 265.109 447.952,265.850 448.427,266.400 448.600 C 266.950 448.773,267.691 449.248,268.046 449.656 C 268.402 450.065,269.251 450.510,269.934 450.647 C 270.618 450.784,271.278 451.215,271.402 451.606 C 271.535 452.025,272.196 452.423,273.014 452.576 C 273.776 452.719,274.400 453.008,274.400 453.218 C 274.400 453.428,274.670 453.600,275.000 453.600 C 275.330 453.600,275.600 453.777,275.600 453.992 C 275.600 454.208,276.050 454.498,276.600 454.636 C 277.150 454.774,277.600 455.047,277.600 455.243 C 277.600 455.440,277.941 455.600,278.357 455.600 C 278.774 455.600,279.218 455.870,279.345 456.200 C 279.471 456.530,279.941 456.800,280.387 456.800 C 280.834 456.800,281.200 456.980,281.200 457.200 C 281.200 457.420,281.470 457.600,281.800 457.600 C 282.130 457.600,282.400 457.777,282.400 457.992 C 282.400 458.208,282.850 458.498,283.400 458.636 C 283.950 458.774,284.400 459.047,284.400 459.243 C 284.400 459.440,284.670 459.600,285.000 459.600 C 285.330 459.600,285.600 459.777,285.600 459.992 C 285.600 460.208,286.050 460.498,286.600 460.636 C 287.150 460.774,287.600 461.047,287.600 461.243 C 287.600 461.440,287.960 461.600,288.400 461.600 C 288.840 461.600,289.200 461.760,289.200 461.957 C 289.200 462.153,289.650 462.426,290.200 462.564 C 290.750 462.702,291.200 462.992,291.200 463.208 C 291.200 463.423,291.470 463.600,291.800 463.600 C 292.130 463.600,292.400 463.760,292.400 463.957 C 292.400 464.153,292.850 464.426,293.400 464.564 C 293.950 464.702,294.400 464.992,294.400 465.208 C 294.400 465.423,294.670 465.600,295.000 465.600 C 295.330 465.600,295.600 465.780,295.600 466.000 C 295.600 466.220,295.966 466.400,296.413 466.400 C 296.859 466.400,297.329 466.670,297.455 467.000 C 297.582 467.330,298.026 467.600,298.443 467.600 C 298.859 467.600,299.200 467.760,299.200 467.957 C 299.200 468.153,299.650 468.426,300.200 468.564 C 300.750 468.702,301.200 468.992,301.200 469.208 C 301.200 469.423,301.470 469.600,301.800 469.600 C 302.130 469.600,302.400 469.772,302.400 469.982 C 302.400 470.192,303.024 470.481,303.786 470.624 C 304.604 470.777,305.265 471.175,305.398 471.594 C 305.522 471.985,306.182 472.416,306.866 472.553 C 307.549 472.690,308.398 473.135,308.754 473.544 C 309.109 473.952,309.850 474.427,310.400 474.600 C 310.950 474.773,311.691 475.248,312.046 475.656 C 312.402 476.065,313.257 476.511,313.946 476.649 C 314.636 476.787,315.200 477.057,315.200 477.250 C 315.200 477.443,315.470 477.600,315.800 477.600 C 316.325 477.600,316.400 480.133,316.400 498.000 L 316.400 518.400 280.627 518.400 C 245.960 518.400,244.847 518.377,244.615 517.648 C 244.477 517.213,243.851 516.790,243.134 516.647 C 242.451 516.510,241.602 516.065,241.246 515.656 C 240.891 515.248,240.150 514.773,239.600 514.600 C 239.050 514.427,238.309 513.952,237.954 513.544 C 237.598 513.135,236.749 512.690,236.066 512.553 C 235.383 512.417,234.723 511.988,234.600 511.600 C 234.477 511.212,233.817 510.783,233.134 510.647 C 232.451 510.510,231.602 510.065,231.246 509.656 C 230.891 509.248,230.150 508.773,229.600 508.600 C 229.050 508.427,228.309 507.952,227.954 507.544 C 227.598 507.135,226.749 506.690,226.066 506.553 C 225.383 506.417,224.723 505.988,224.600 505.600 C 224.477 505.212,223.817 504.783,223.134 504.647 C 222.451 504.510,221.602 504.065,221.246 503.656 C 220.891 503.248,220.150 502.773,219.600 502.600 C 219.050 502.427,218.309 501.952,217.954 501.544 C 217.598 501.135,216.749 500.690,216.066 500.553 C 215.383 500.417,214.723 499.988,214.600 499.600 C 214.477 499.212,213.817 498.783,213.134 498.647 C 212.451 498.510,211.602 498.065,211.246 497.656 C 210.891 497.248,210.150 496.773,209.600 496.600 C 209.050 496.427,208.309 495.952,207.954 495.544 C 207.598 495.135,206.749 494.690,206.066 494.553 C 205.383 494.417,204.723 493.988,204.600 493.600 C 204.477 493.212,203.817 492.783,203.134 492.647 C 202.451 492.510,201.602 492.065,201.246 491.656 C 200.891 491.248,200.150 490.773,199.600 490.600 C 199.050 490.427,198.309 489.952,197.954 489.544 C 197.598 489.135,196.749 488.690,196.066 488.553 C 195.382 488.416,194.722 487.985,194.598 487.594 C 194.465 487.175,193.804 486.777,192.986 486.624 C 192.224 486.481,191.600 486.192,191.600 485.982 C 191.600 485.772,191.330 485.600,191.000 485.600 C 190.670 485.600,190.400 485.423,190.400 485.208 C 190.400 484.992,189.950 484.702,189.400 484.564 C 188.850 484.426,188.400 484.153,188.400 483.957 C 188.400 483.760,188.059 483.600,187.643 483.600 C 187.226 483.600,186.782 483.330,186.655 483.000 C 186.529 482.670,186.059 482.400,185.613 482.400 C 185.166 482.400,184.800 482.220,184.800 482.000 C 184.800 481.780,184.530 481.600,184.200 481.600 C 183.870 481.600,183.600 481.423,183.600 481.208 C 183.600 480.992,183.150 480.702,182.600 480.564 C 182.050 480.426,181.600 480.153,181.600 479.957 C 181.600 479.760,181.330 479.600,181.000 479.600 C 180.670 479.600,180.400 479.423,180.400 479.208 C 180.400 478.992,179.950 478.702,179.400 478.564 C 178.850 478.426,178.400 478.153,178.400 477.957 C 178.400 477.760,178.059 477.600,177.643 477.600 C 177.226 477.600,176.782 477.330,176.655 477.000 C 176.529 476.670,176.059 476.400,175.613 476.400 C 175.166 476.400,174.800 476.220,174.800 476.000 C 174.800 475.780,174.440 475.600,174.000 475.600 C 173.560 475.600,173.200 475.780,173.200 476.000 C 173.200 476.220,172.834 476.400,172.387 476.400 C 171.941 476.400,171.471 476.670,171.345 477.000 C 171.218 477.330,170.774 477.600,170.357 477.600 C 169.941 477.600,169.600 477.760,169.600 477.957 C 169.600 478.153,169.150 478.426,168.600 478.564 C 168.050 478.702,167.600 478.992,167.600 479.208 C 167.600 479.423,167.330 479.600,167.000 479.600 C 166.670 479.600,166.400 479.760,166.400 479.957 C 166.400 480.153,165.950 480.426,165.400 480.564 C 164.850 480.702,164.400 480.992,164.400 481.208 C 164.400 481.423,164.130 481.600,163.800 481.600 C 163.470 481.600,163.200 481.780,163.200 482.000 C 163.200 482.220,162.834 482.400,162.387 482.400 C 161.941 482.400,161.471 482.670,161.345 483.000 C 161.218 483.330,160.774 483.600,160.357 483.600 C 159.941 483.600,159.600 483.760,159.600 483.957 C 159.600 484.153,159.150 484.426,158.600 484.564 C 158.050 484.702,157.600 484.992,157.600 485.208 C 157.600 485.423,157.330 485.600,157.000 485.600 C 156.670 485.600,156.400 485.760,156.400 485.957 C 156.400 486.153,155.950 486.426,155.400 486.564 C 154.850 486.702,154.400 486.992,154.400 487.208 C 154.400 487.423,154.130 487.600,153.800 487.600 C 153.470 487.600,153.200 487.780,153.200 488.000 C 153.200 488.220,152.834 488.400,152.387 488.400 C 151.941 488.400,151.471 488.670,151.345 489.000 C 151.218 489.330,150.774 489.600,150.357 489.600 C 149.941 489.600,149.600 489.760,149.600 489.957 C 149.600 490.153,149.150 490.426,148.600 490.564 C 148.050 490.702,147.600 490.992,147.600 491.208 C 147.600 491.423,147.330 491.600,147.000 491.600 C 146.670 491.600,146.400 491.760,146.400 491.957 C 146.400 492.153,145.950 492.426,145.400 492.564 C 144.850 492.702,144.400 492.992,144.400 493.208 C 144.400 493.423,144.130 493.600,143.800 493.600 C 143.470 493.600,143.200 493.757,143.200 493.950 C 143.200 494.143,142.636 494.413,141.946 494.551 C 141.257 494.689,140.402 495.135,140.046 495.544 C 139.691 495.952,138.950 496.427,138.400 496.600 C 137.850 496.773,137.109 497.248,136.754 497.656 C 136.398 498.065,135.549 498.510,134.866 498.647 C 134.183 498.783,133.523 499.212,133.400 499.600 C 133.277 499.988,132.617 500.417,131.934 500.553 C 131.251 500.690,130.402 501.135,130.046 501.544 C 129.691 501.952,128.950 502.427,128.400 502.600 C 127.850 502.773,127.109 503.248,126.754 503.656 C 126.398 504.065,125.549 504.510,124.866 504.647 C 124.183 504.783,123.523 505.212,123.400 505.600 C 123.277 505.988,122.617 506.417,121.934 506.553 C 121.251 506.690,120.402 507.135,120.046 507.544 C 119.691 507.952,118.950 508.427,118.400 508.600 C 117.850 508.773,117.109 509.248,116.754 509.656 C 116.398 510.065,115.549 510.510,114.866 510.647 C 114.183 510.783,113.523 511.212,113.400 511.600 C 113.277 511.988,112.617 512.417,111.934 512.553 C 111.251 512.690,110.402 513.135,110.046 513.544 C 109.691 513.952,108.950 514.427,108.400 514.600 C 107.850 514.773,107.109 515.248,106.754 515.656 C 106.398 516.065,105.549 516.510,104.866 516.647 C 104.149 516.790,103.523 517.213,103.385 517.648 C 103.153 518.377,102.006 518.400,65.773 518.400 L 28.400 518.400 28.400 498.643 L 28.400 478.887 29.400 478.636 C 29.950 478.498,30.400 478.208,30.400 477.992 C 30.400 477.777,30.670 477.600,31.000 477.600 C 31.330 477.600,31.600 477.440,31.600 477.243 C 31.600 477.047,32.050 476.774,32.600 476.636 C 33.150 476.498,33.600 476.208,33.600 475.992 C 33.600 475.777,33.870 475.600,34.200 475.600 C 34.530 475.600,34.800 475.420,34.800 475.200 C 34.800 474.980,35.166 474.800,35.613 474.800 C 36.059 474.800,36.529 474.530,36.655 474.200 C 36.782 473.870,37.226 473.600,37.643 473.600 C 38.059 473.600,38.400 473.440,38.400 473.243 C 38.400 473.047,38.850 472.774,39.400 472.636 C 39.950 472.498,40.400 472.208,40.400 471.992 C 40.400 471.777,40.670 471.600,41.000 471.600 C 41.330 471.600,41.600 471.440,41.600 471.243 C 41.600 471.047,42.050 470.774,42.600 470.636 C 43.150 470.498,43.600 470.208,43.600 469.992 C 43.600 469.777,43.870 469.600,44.200 469.600 C 44.530 469.600,44.800 469.420,44.800 469.200 C 44.800 468.980,45.166 468.800,45.613 468.800 C 46.059 468.800,46.529 468.530,46.655 468.200 C 46.782 467.870,47.226 467.600,47.643 467.600 C 48.059 467.600,48.400 467.440,48.400 467.243 C 48.400 467.047,48.850 466.774,49.400 466.636 C 49.950 466.498,50.400 466.208,50.400 465.992 C 50.400 465.777,50.670 465.600,51.000 465.600 C 51.330 465.600,51.600 465.440,51.600 465.243 C 51.600 465.047,52.050 464.774,52.600 464.636 C 53.150 464.498,53.600 464.208,53.600 463.992 C 53.600 463.777,53.870 463.600,54.200 463.600 C 54.530 463.600,54.800 463.420,54.800 463.200 C 54.800 462.980,55.166 462.800,55.613 462.800 C 56.059 462.800,56.529 462.530,56.655 462.200 C 56.782 461.870,57.226 461.600,57.643 461.600 C 58.059 461.600,58.400 461.440,58.400 461.243 C 58.400 461.047,58.850 460.774,59.400 460.636 C 59.950 460.498,60.400 460.208,60.400 459.992 C 60.400 459.777,60.670 459.600,61.000 459.600 C 61.330 459.600,61.600 459.440,61.600 459.243 C 61.600 459.047,62.050 458.774,62.600 458.636 C 63.150 458.498,63.600 458.208,63.600 457.992 C 63.600 457.777,63.870 457.600,64.200 457.600 C 64.530 457.600,64.800 457.420,64.800 457.200 C 64.800 456.980,65.166 456.800,65.613 456.800 C 66.059 456.800,66.529 456.530,66.655 456.200 C 66.782 455.870,67.226 455.600,67.643 455.600 C 68.059 455.600,68.400 455.440,68.400 455.243 C 68.400 455.047,68.850 454.774,69.400 454.636 C 69.950 454.498,70.400 454.208,70.400 453.992 C 70.400 453.777,70.670 453.600,71.000 453.600 C 71.330 453.600,71.600 453.440,71.600 453.243 C 71.600 453.047,72.050 452.774,72.600 452.636 C 73.150 452.498,73.600 452.208,73.600 451.992 C 73.600 451.777,73.870 451.600,74.200 451.600 C 74.530 451.600,74.800 451.420,74.800 451.200 C 74.800 450.980,75.166 450.800,75.613 450.800 C 76.059 450.800,76.529 450.530,76.655 450.200 C 76.782 449.870,77.226 449.600,77.643 449.600 C 78.059 449.600,78.400 449.440,78.400 449.243 C 78.400 449.047,78.884 448.765,79.476 448.617 C 80.068 448.468,80.854 447.999,81.223 447.574 C 81.591 447.149,82.451 446.690,83.134 446.553 C 83.817 446.417,84.477 445.988,84.600 445.600 C 84.723 445.212,85.383 444.783,86.066 444.647 C 86.749 444.510,87.598 444.065,87.954 443.656 C 88.309 443.248,89.050 442.773,89.600 442.600 C 90.150 442.427,90.891 441.952,91.246 441.544 C 91.602 441.135,92.451 440.690,93.134 440.553 C 93.817 440.417,94.477 439.988,94.600 439.600 C 94.723 439.212,95.383 438.783,96.066 438.647 C 96.749 438.510,97.598 438.065,97.954 437.656 C 98.309 437.248,99.050 436.773,99.600 436.600 C 100.150 436.427,100.891 435.952,101.246 435.544 C 101.602 435.135,102.451 434.690,103.134 434.553 C 103.817 434.417,104.477 433.988,104.600 433.600 C 104.723 433.212,105.383 432.783,106.066 432.647 C 106.749 432.510,107.609 432.051,107.977 431.626 C 108.346 431.201,109.132 430.732,109.724 430.583 C 110.922 430.283,111.332 428.400,110.200 428.400 C 109.870 428.400,109.600 428.220,109.600 428.000 C 109.600 427.780,109.330 427.600,109.000 427.600 C 108.670 427.600,108.400 427.423,108.400 427.208 C 108.400 426.992,107.950 426.702,107.400 426.564 C 106.850 426.426,106.400 426.153,106.400 425.957 C 106.400 425.760,106.059 425.600,105.643 425.600 C 105.226 425.600,104.782 425.330,104.655 425.000 C 104.529 424.670,104.059 424.400,103.613 424.400 C 103.166 424.400,102.800 424.220,102.800 424.000 C 102.800 423.780,102.530 423.600,102.200 423.600 C 101.870 423.600,101.600 423.423,101.600 423.208 C 101.600 422.992,101.150 422.702,100.600 422.564 C 100.050 422.426,99.600 422.153,99.600 421.957 C 99.600 421.760,99.330 421.600,99.000 421.600 C 98.670 421.600,98.400 421.423,98.400 421.208 C 98.400 420.992,97.950 420.702,97.400 420.564 C 96.850 420.426,96.400 420.153,96.400 419.957 C 96.400 419.760,96.040 419.600,95.600 419.600 C 95.160 419.600,94.800 419.440,94.800 419.243 C 94.800 419.047,94.350 418.774,93.800 418.636 C 93.250 418.498,92.800 418.208,92.800 417.992 C 92.800 417.777,92.530 417.600,92.200 417.600 C 91.870 417.600,91.600 417.440,91.600 417.243 C 91.600 417.047,91.150 416.774,90.600 416.636 C 90.050 416.498,89.600 416.208,89.600 415.992 C 89.600 415.777,89.330 415.600,89.000 415.600 C 88.670 415.600,88.400 415.420,88.400 415.200 C 88.400 414.980,88.034 414.800,87.587 414.800 C 87.141 414.800,86.671 414.530,86.545 414.200 C 86.418 413.870,85.974 413.600,85.557 413.600 C 85.141 413.600,84.800 413.440,84.800 413.243 C 84.800 413.047,84.350 412.774,83.800 412.636 C 83.250 412.498,82.800 412.208,82.800 411.992 C 82.800 411.777,82.530 411.600,82.200 411.600 C 81.870 411.600,81.600 411.440,81.600 411.243 C 81.600 411.047,81.150 410.774,80.600 410.636 C 80.050 410.498,79.600 410.208,79.600 409.992 C 79.600 409.777,79.330 409.600,79.000 409.600 C 78.670 409.600,78.400 409.420,78.400 409.200 C 78.400 408.980,78.034 408.800,77.587 408.800 C 77.141 408.800,76.671 408.530,76.545 408.200 C 76.418 407.870,75.974 407.600,75.557 407.600 C 75.141 407.600,74.800 407.440,74.800 407.243 C 74.800 407.047,74.350 406.774,73.800 406.636 C 73.250 406.498,72.800 406.208,72.800 405.992 C 72.800 405.777,72.530 405.600,72.200 405.600 C 71.870 405.600,71.600 405.440,71.600 405.243 C 71.600 405.047,71.150 404.774,70.600 404.636 C 70.050 404.498,69.600 404.208,69.600 403.992 C 69.600 403.777,69.330 403.600,69.000 403.600 C 68.670 403.600,68.400 403.420,68.400 403.200 C 68.400 402.980,68.034 402.800,67.587 402.800 C 67.141 402.800,66.671 402.530,66.545 402.200 C 66.418 401.870,65.974 401.600,65.557 401.600 C 65.141 401.600,64.800 401.440,64.800 401.243 C 64.800 401.047,64.350 400.774,63.800 400.636 C 63.250 400.498,62.800 400.208,62.800 399.992 C 62.800 399.777,62.530 399.600,62.200 399.600 C 61.870 399.600,61.600 399.440,61.600 399.243 C 61.600 399.047,61.150 398.774,60.600 398.636 C 60.050 398.498,59.600 398.208,59.600 397.992 C 59.600 397.777,59.330 397.600,59.000 397.600 C 58.670 397.600,58.400 397.420,58.400 397.200 C 58.400 396.980,58.034 396.800,57.587 396.800 C 57.141 396.800,56.671 396.530,56.545 396.200 C 56.418 395.870,55.974 395.600,55.557 395.600 C 55.141 395.600,54.800 395.440,54.800 395.243 C 54.800 395.047,54.350 394.774,53.800 394.636 C 53.250 394.498,52.800 394.208,52.800 393.992 C 52.800 393.777,52.530 393.600,52.200 393.600 C 51.870 393.600,51.600 393.440,51.600 393.243 C 51.600 393.047,51.150 392.774,50.600 392.636 C 50.050 392.498,49.600 392.208,49.600 391.992 C 49.600 391.777,49.330 391.600,49.000 391.600 C 48.670 391.600,48.400 391.420,48.400 391.200 C 48.400 390.980,48.034 390.800,47.587 390.800 C 47.141 390.800,46.671 390.530,46.545 390.200 C 46.418 389.870,45.974 389.600,45.557 389.600 C 45.141 389.600,44.800 389.440,44.800 389.243 C 44.800 389.047,44.350 388.774,43.800 388.636 C 43.250 388.498,42.800 388.208,42.800 387.992 C 42.800 387.777,42.530 387.600,42.200 387.600 C 41.870 387.600,41.600 387.428,41.600 387.218 C 41.600 387.008,40.976 386.719,40.214 386.576 C 39.396 386.423,38.735 386.025,38.602 385.606 C 38.478 385.215,37.818 384.784,37.134 384.647 C 36.451 384.510,35.602 384.065,35.246 383.656 C 34.891 383.248,34.150 382.773,33.600 382.600 C 33.050 382.427,32.319 381.963,31.976 381.570 C 31.633 381.176,30.823 380.724,30.176 380.565 C 29.529 380.407,28.868 380.080,28.706 379.838 C 28.223 379.118,28.332 156.400,28.815 156.400 C 29.043 156.400,29.993 155.615,30.925 154.655 C 31.858 153.696,33.012 152.787,33.490 152.635 C 33.968 152.483,34.467 152.017,34.600 151.600 C 34.733 151.183,35.192 150.730,35.620 150.594 C 36.049 150.457,36.400 150.178,36.400 149.973 C 36.400 149.768,36.594 149.600,36.831 149.600 C 37.069 149.600,37.976 148.880,38.847 148.000 C 39.718 147.120,40.611 146.400,40.830 146.400 C 41.050 146.400,41.993 145.615,42.925 144.655 C 43.858 143.696,45.012 142.787,45.490 142.635 C 45.968 142.483,46.467 142.017,46.600 141.600 C 46.733 141.183,47.192 140.730,47.620 140.594 C 48.049 140.457,48.400 140.178,48.400 139.973 C 48.400 139.768,48.594 139.600,48.831 139.600 C 49.069 139.600,49.976 138.880,50.847 138.000 C 51.718 137.120,52.611 136.400,52.830 136.400 C 53.050 136.400,53.993 135.615,54.925 134.655 C 55.858 133.696,57.012 132.787,57.490 132.635 C 57.968 132.483,58.467 132.017,58.600 131.600 C 58.733 131.183,59.192 130.730,59.620 130.594 C 60.049 130.457,60.400 130.178,60.400 129.973 C 60.400 129.768,60.594 129.600,60.831 129.600 C 61.069 129.600,61.976 128.880,62.847 128.000 C 63.718 127.120,64.616 126.400,64.842 126.400 C 65.069 126.400,65.848 125.770,66.574 125.000 C 67.300 124.230,68.098 123.600,68.347 123.600 C 68.596 123.600,68.800 123.432,68.800 123.227 C 68.800 123.022,69.151 122.743,69.580 122.606 C 70.008 122.470,70.467 122.017,70.600 121.600 C 70.733 121.183,71.232 120.717,71.710 120.565 C 72.188 120.413,73.342 119.504,74.275 118.545 C 75.207 117.585,76.150 116.800,76.370 116.800 C 76.589 116.800,77.482 116.080,78.353 115.200 C 79.224 114.320,80.131 113.600,80.369 113.600 C 80.606 113.600,80.800 113.432,80.800 113.227 C 80.800 113.022,81.151 112.743,81.580 112.606 C 82.008 112.470,82.467 112.017,82.600 111.600 C 82.733 111.183,83.232 110.717,83.710 110.565 C 84.188 110.413,85.342 109.504,86.275 108.545 C 87.207 107.585,88.150 106.800,88.370 106.800 C 88.589 106.800,89.482 106.080,90.353 105.200 C 91.224 104.320,92.131 103.600,92.369 103.600 C 92.606 103.600,92.800 103.432,92.800 103.227 C 92.800 103.022,93.151 102.743,93.580 102.606 C 94.008 102.470,94.467 102.017,94.600 101.600 C 94.733 101.183,95.232 100.717,95.710 100.565 C 96.188 100.413,97.342 99.504,98.275 98.545 C 99.207 97.585,100.155 96.800,100.382 96.800 C 100.608 96.800,101.309 96.260,101.940 95.600 C 102.571 94.940,103.370 94.400,103.716 94.400 C 104.063 94.400,104.457 94.049,104.594 93.620 C 104.730 93.192,105.183 92.733,105.600 92.600 C 106.017 92.467,106.470 92.008,106.606 91.580 C 106.743 91.151,107.140 90.800,107.489 90.800 C 107.838 90.800,108.809 90.080,109.646 89.200 C 110.483 88.320,111.362 87.600,111.600 87.600 C 111.838 87.600,112.717 86.880,113.554 86.000 C 114.391 85.120,115.362 84.400,115.711 84.400 C 116.060 84.400,116.457 84.049,116.594 83.620 C 116.730 83.192,117.183 82.733,117.600 82.600 C 118.017 82.467,118.470 82.008,118.606 81.580 C 118.743 81.151,119.140 80.800,119.489 80.800 C 119.838 80.800,120.809 80.080,121.646 79.200 C 122.483 78.320,123.362 77.600,123.600 77.600 C 123.838 77.600,124.717 76.880,125.554 76.000 C 126.391 75.120,127.362 74.400,127.711 74.400 C 128.060 74.400,128.457 74.049,128.594 73.620 C 128.730 73.192,129.183 72.733,129.600 72.600 C 130.017 72.467,130.470 72.008,130.606 71.580 C 130.743 71.151,131.140 70.800,131.489 70.800 C 131.838 70.800,132.809 70.080,133.646 69.200 C 134.483 68.320,135.362 67.600,135.600 67.600 C 135.838 67.600,136.717 66.880,137.554 66.000 C 138.391 65.120,139.362 64.400,139.711 64.400 C 140.060 64.400,140.457 64.049,140.594 63.620 C 140.730 63.192,141.192 62.730,141.620 62.594 C 142.049 62.457,142.400 62.178,142.400 61.973 C 142.400 61.768,142.594 61.600,142.831 61.600 C 143.069 61.600,143.976 60.880,144.847 60.000 C 145.718 59.120,146.611 58.400,146.830 58.400 C 147.050 58.400,147.993 57.615,148.925 56.655 C 149.858 55.696,151.012 54.787,151.490 54.635 C 151.968 54.483,152.467 54.017,152.600 53.600 C 152.733 53.183,153.192 52.730,153.620 52.594 C 154.049 52.457,154.400 52.178,154.400 51.973 C 154.400 51.768,154.594 51.600,154.831 51.600 C 155.069 51.600,155.976 50.880,156.847 50.000 C 157.718 49.120,158.611 48.400,158.830 48.400 C 159.050 48.400,159.993 47.615,160.925 46.655 C 161.858 45.696,163.012 44.787,163.490 44.635 C 163.968 44.483,164.467 44.017,164.600 43.600 C 164.733 43.183,165.192 42.730,165.620 42.594 C 166.049 42.457,166.400 42.178,166.400 41.973 C 166.400 41.768,166.594 41.600,166.831 41.600 C 167.069 41.600,167.976 40.880,168.847 40.000 C 169.718 39.120,170.611 38.400,170.830 38.400 C 171.050 38.400,171.993 37.615,172.925 36.655 C 173.858 35.696,175.012 34.787,175.490 34.635 C 175.968 34.483,176.467 34.017,176.600 33.600 C 176.733 33.183,177.232 32.717,177.710 32.565 C 178.188 32.413,179.342 31.504,180.275 30.545 C 181.207 29.585,182.150 28.800,182.370 28.800 C 182.589 28.800,183.482 28.080,184.353 27.200 C 185.224 26.320,186.131 25.600,186.369 25.600 C 186.606 25.600,186.800 25.432,186.800 25.227 C 186.800 25.022,187.151 24.743,187.580 24.606 C 188.008 24.470,188.470 24.009,188.606 23.580 C 188.742 23.152,189.246 22.697,189.727 22.570 C 190.207 22.442,191.140 21.735,191.800 20.997 C 193.083 19.564,194.748 19.193,195.831 20.100 " stroke="none" fill="#24047c" fill-rule="evenodd"></path><path id="path1" d="M61.200 195.600 C 61.200 196.044,61.467 196.400,61.800 196.400 C 62.133 196.400,62.400 196.044,62.400 195.600 C 62.400 195.156,62.133 194.800,61.800 194.800 C 61.467 194.800,61.200 195.156,61.200 195.600 " stroke="none" fill="#28047c" fill-rule="evenodd"></path><path id="path2" d="M61.200 195.600 C 61.200 196.044,61.467 196.400,61.800 196.400 C 62.133 196.400,62.400 196.044,62.400 195.600 C 62.400 195.156,62.133 194.800,61.800 194.800 C 61.467 194.800,61.200 195.156,61.200 195.600 " stroke="none" fill="#28047c" fill-rule="evenodd"></path><path id="path3" d="M61.200 195.600 C 61.200 196.044,61.467 196.400,61.800 196.400 C 62.133 196.400,62.400 196.044,62.400 195.600 C 62.400 195.156,62.133 194.800,61.800 194.800 C 61.467 194.800,61.200 195.156,61.200 195.600 " stroke="none" fill="#28047c" fill-rule="evenodd"></path><path id="path4" d="M61.200 195.600 C 61.200 196.044,61.467 196.400,61.800 196.400 C 62.133 196.400,62.400 196.044,62.400 195.600 C 62.400 195.156,62.133 194.800,61.800 194.800 C 61.467 194.800,61.200 195.156,61.200 195.600 " stroke="none" fill="#28047c" fill-rule="evenodd"></path></g></svg>