<svg id="圖層_1" data-name="圖層 1" xmlns="http://www.w3.org/2000/svg" viewBox="0 0 1068 332.9"><defs><style>.cls-1{fill:#fff;}.cls-2{fill:#369f50;}.cls-3{fill:#f1b619;}.cls-4{fill:#0052a3;}.cls-5{fill:#cc443a;}.cls-6{fill:#b92521;}</style></defs><title>Winmate_logo</title><g id="new_logo_2021" data-name="new logo 2021"><rect class="cls-1" y="1.3" width="291.55" height="327.8" rx="89.64" ry="89.64"/><path class="cls-2" d="M222.16,329.1q12.15-5.51,17.29-13.66,7-10.31,12.81-34l39.3-220.77V329.1Z"/><path class="cls-3" d="M190.53,329.1h-91q10.27-4.8,14.74-10.79,7.89-10.32,13.68-34l17.73-73.82,17.51,71Q169.8,308,176,317.84q4.49,6.46,14.52,11.26"/><path class="cls-4" d="M68.12,329.1H51.07q-25.22-.25-38.67-14.63A43.93,43.93,0,0,1,1.28,290,176.87,176.87,0,0,1,0,266.31V117L39.94,281.4Q45.07,302.48,51.26,313A41.08,41.08,0,0,0,68.12,329.1"/><path class="cls-5" d="M290.28,41.85c-1.15-9.64-4.85-19.09-11.11-25.83Q265.7,1.58,240.73,1.3H171.88l-14.2,55.26h26.44l40,217.18L262.28,56.56h29.27S291.12,48,290.28,41.85Z"/><polygon class="cls-6" points="0 1.3 0 56.56 61.09 56.56 101.88 273.74 130.93 157.96 119.39 56.56 157.68 56.56 171.88 1.3 0 1.3"/><path class="cls-6" d="M313.08,329.1V180.26h48.83V329.1ZM338,111.3c6.84,0,12.73,2.72,17.6,8.12a24.18,24.18,0,0,1-1.82,34.39,24.42,24.42,0,0,1-40.69-18.27,23.2,23.2,0,0,1,8.13-17.94A24.16,24.16,0,0,1,338,111.3Z"/><path class="cls-6" d="M379,329.1V212.63c0-8.44.48-14.29,1.48-17.5q5.43-19,25.17-19a28,28,0,0,1,16.29,5q3.44,2.31,12,15.09l41,60.54V180.26H499V301.84q0,19.14-4.77,25-5.27,6.37-15,6.39a18.29,18.29,0,0,1-12.5-4.82,73.9,73.9,0,0,1-9.21-11.79L403.09,233V329.1Z"/><path class="cls-6" d="M516.36,329.1V207.34c0-10.36,2.55-18.07,7.67-23.08s13-7.53,23.54-7.53q10.39,0,17.83,4.14,6.11,3.47,11.72,16.69l20,48,19.32-48.37Q621.21,185.31,628,181q7.43-4.83,19.82-4.83,14.19,0,21.79,8.1,6.77,7.25,6.78,23.11V329.1H627.55V221.22L587.79,329.1H582L540.48,221.22V329.1Z"/><path class="cls-6" d="M755.26,217.33l19,62.94H734.08ZM717.86,329.1l9.59-28.83h52.61l8.77,28.83h51.3L797.61,202q-8.44-25.31-29.28-25.31-22,0-30.61,25.31L694.53,329.1Z"/><path class="cls-6" d="M861,329.1V201.43H818V180.26H952.17v21.16H909.8V329.1Z"/><path class="cls-6" d="M1068,307.33V329.1H997.07q-16.13,0-24.92-6.49a21.5,21.5,0,0,1-7.38-9.15c-1.39-3.43-2.09-8.16-2.09-14.15v-85q0-16.87,9-25.49t26.57-8.6h67.41v21.16h-37.31c-6.48,0-10.95,1.4-13.36,4.15q-3.46,3.48-3.46,13.25V243.2h48.84V265h-48.84v26.65c0,6.55,1,10.85,3,12.93q3.3,2.78,13,2.77Z"/></g></svg>